<svg xmlns="http://www.w3.org/2000/svg" width="567.387" height="567.386" viewBox="0 0 567.387 567.386"><g transform="translate(-676.366 -254)"><path d="M197,15C96.645,15,15,96.645,15,197S96.645,379,197,379s182-81.645,182-182S297.355,15,197,15m0-15C305.8,0,394,88.2,394,197S305.8,394,197,394,0,305.8,0,197,88.2,0,197,0Z" transform="translate(763 341)" fill="#148bcc"/><path d="M160,10C77.29,10,10,77.065,10,159.5S77.29,309,160,309s150-67.065,150-149.5S242.71,10,160,10m0-10c88.366,0,160,71.411,160,159.5S248.366,319,160,319,0,247.589,0,159.5,71.634,0,160,0Z" transform="translate(800 379)" fill="#148bcc"/><g transform="translate(960.872 293.538) rotate(45)"><g transform="translate(85.461 0)"><path d="M0,83.73,122.483,0,38.753,122.483H0Z" transform="translate(0 86.609) rotate(-45)" fill="#fff"/><path d="M33.476,112.483,84.2,38.285,10,89.007v23.476H33.476m5.277,10H0V83.73L122.483,0Z" transform="translate(0 86.609) rotate(-45)" fill="#3c728e"/><path d="M122.483,0,38.753,122.483H0Z" transform="translate(0 86.609) rotate(-45)" fill="#3c728e"/><path d="M53.643,82.983l-29.5,29.5h9.334l20.167-29.5M122.483,0,38.753,122.483H0Z" transform="translate(0 86.609) rotate(-45)" fill="#3c728e"/></g><g transform="translate(85.461 173.218)"><path d="M0,83.73,122.483,0,38.753,122.483H0Z" transform="translate(173.218 86.609) rotate(135)" fill="#fff"/><path d="M33.476,112.483,84.2,38.285,10,89.007v23.476H33.476m5.277,10H0V83.73L122.483,0Z" transform="translate(173.218 86.609) rotate(135)" fill="#3c728e"/><path d="M122.483,0,38.753,122.483H0Z" transform="translate(173.218 86.609) rotate(135)" fill="#3c728e"/><path d="M53.643,82.983l-29.5,29.5h9.334l20.167-29.5M122.483,0,38.753,122.483H0Z" transform="translate(173.218 86.609) rotate(135)" fill="#3c728e"/></g><g transform="translate(345.287 86.609) rotate(90)"><g transform="translate(0 0)"><path d="M0,83.73,122.483,0,38.753,122.483H0Z" transform="translate(0 86.609) rotate(-45)" fill="#fff"/><path d="M33.476,112.483,84.2,38.285,10,89.007v23.476H33.476m5.277,10H0V83.73L122.483,0Z" transform="translate(0 86.609) rotate(-45)" fill="#3c728e"/><path d="M122.483,0,38.753,122.483H0Z" transform="translate(0 86.609) rotate(-45)" fill="#3c728e"/><path d="M53.643,82.983l-29.5,29.5h9.334l20.167-29.5M122.483,0,38.753,122.483H0Z" transform="translate(0 86.609) rotate(-45)" fill="#3c728e"/></g></g><g transform="translate(-1.148 259.827) rotate(-90)"><g transform="translate(0 0)"><path d="M0,83.73,122.483,0,38.753,122.483H0Z" transform="translate(0 86.609) rotate(-45)" fill="#fff"/><path d="M33.476,112.483,84.2,38.285,10,89.007v23.476H33.476m5.277,10H0V83.73L122.483,0Z" transform="translate(0 86.609) rotate(-45)" fill="#3c728e"/><path d="M122.483,0,38.753,122.483H0Z" transform="translate(0 86.609) rotate(-45)" fill="#3c728e"/><path d="M53.643,82.983l-29.5,29.5h9.334l20.167-29.5M122.483,0,38.753,122.483H0Z" transform="translate(0 86.609) rotate(-45)" fill="#3c728e"/></g></g></g><g transform="translate(736.764 313.249)"><g transform="translate(111.074 0)"><path d="M0,108.492,158.706,0,50.214,158.706H0Z" transform="translate(0 112.222) rotate(-45)" fill="#fff"/><path d="M44.937,148.706,120.421,38.285,10,113.769v34.937H44.937m5.277,10H0V108.492L158.706,0Z" transform="translate(0 112.222) rotate(-45)" fill="#3c598e"/><path d="M158.706,0,50.214,158.706H0Z" transform="translate(0 112.222) rotate(-45)" fill="#3c598e"/><text transform="translate(95.162 -14.249)" fill="#3c598e" font-size="50" font-family="Stencil"><tspan x="0" y="0">N</tspan></text></g><g transform="translate(111.074 224.444)"><path d="M0,108.492,158.706,0,50.214,158.706H0Z" transform="translate(224.444 112.222) rotate(135)" fill="#fff"/><path d="M44.937,148.706,120.421,38.285,10,113.769v34.937H44.937m5.277,10H0V108.492L158.706,0Z" transform="translate(224.444 112.222) rotate(135)" fill="#3c598e"/><path d="M158.706,0,50.214,158.706H0Z" transform="translate(224.444 112.222) rotate(135)" fill="#3c598e"/><path d="M89.865,82.983,24.142,148.706H44.937L89.865,82.983M158.706,0,50.214,158.706H0Z" transform="translate(224.444 112.222) rotate(135)" fill="#3c598e"/><text transform="translate(126.282 238.693) rotate(180)" fill="#3c598e" font-size="50" font-family="Stencil"><tspan x="0" y="0">S</tspan></text></g><g transform="translate(447.74 112.222) rotate(90)"><path d="M0,108.492,158.706,0,50.214,158.706H0Z" transform="translate(0 112.222) rotate(-45)" fill="#fff"/><path d="M44.937,148.706,120.421,38.285,10,113.769v34.937H44.937m5.277,10H0V108.492L158.706,0Z" transform="translate(0 112.222) rotate(-45)" fill="#3c598e"/><path d="M158.706,0,50.214,158.706H0Z" transform="translate(0 112.222) rotate(-45)" fill="#3c598e"/><path d="M89.865,82.983,24.142,148.706H44.937L89.865,82.983M158.706,0,50.214,158.706H0Z" transform="translate(0 112.222) rotate(-45)" fill="#3c598e"/><text transform="translate(98.162 -14.249)" fill="#3c598e" font-size="50" font-family="Stencil"><tspan x="0" y="0">E</tspan></text></g><g transform="translate(-60.397 336.666) rotate(-90)"><g transform="translate(0 59.249)"><path d="M0,108.492,158.706,0,50.214,158.706H0Z" transform="translate(0 112.222) rotate(-45)" fill="#fff"/><path d="M44.937,148.706,120.421,38.285,10,113.769v34.937H44.937m5.277,10H0V108.492L158.706,0Z" transform="translate(0 112.222) rotate(-45)" fill="#3c598e"/><path d="M158.706,0,50.214,158.706H0Z" transform="translate(0 112.222) rotate(-45)" fill="#3c598e"/><path d="M89.865,82.983,24.142,148.706H44.937L89.865,82.983M158.706,0,50.214,158.706H0Z" transform="translate(0 112.222) rotate(-45)" fill="#3c598e"/></g><text transform="translate(96.162 45)" fill="#3c598e" font-size="50" font-family="Stencil"><tspan x="0" y="0">O</tspan></text></g></g><rect width="100" height="16" transform="translate(929.923 496.902) rotate(45)" fill="#3c598e"/><rect width="100" height="16" transform="translate(1000.634 508.216) rotate(135)" fill="#3c598e"/></g></svg>